<svg width="191" height="17" viewBox="0 0 191 17" fill="none" xmlns="http://www.w3.org/2000/svg">
<mask id="mask0_176_125" style="mask-type:luminance" maskUnits="userSpaceOnUse" x="0" y="0" width="191" height="17">
<path d="M0 0H190.056V16.361H0V0Z" fill="white"/>
</mask>
<g mask="url(#mask0_176_125)">
<mask id="mask1_176_125" style="mask-type:luminance" maskUnits="userSpaceOnUse" x="0" y="0" width="191" height="17">
<path d="M0.717468 0.000976562C0.277747 0.000976562 0.0598145 0.230633 0.0598145 0.698149V15.6012C0.0598145 16.0687 0.277747 16.3005 0.717468 16.3005H10.941C15.6911 16.3005 17.641 14.2725 17.641 9.73268V6.5667C17.6467 2.02688 15.6969 0.000976562 10.941 0.000976562H0.717468ZM3.38858 3.58526C3.38858 3.37611 3.4773 3.28179 3.67402 3.28179H10.8581C13.4405 3.28179 14.318 4.12044 14.318 6.86607V9.42921C14.318 12.1728 13.4443 13.0135 10.8581 13.0135H3.67402C3.4773 13.0135 3.38858 12.9192 3.38858 12.71V3.58526ZM26.3409 0.000976562C21.8974 0.000976562 20.2099 1.70085 20.2099 6.14839V10.153C20.2099 14.5985 21.8974 16.3005 26.3409 16.3005H35.9742C36.279 16.3005 36.4564 16.1364 36.4564 15.7858V13.5282C36.4564 13.2021 36.279 13.0135 35.9742 13.0135H26.3602C24.1037 13.0135 23.5116 12.3368 23.5116 9.89467V9.61785H35.8392C36.1459 9.61785 36.3233 9.45381 36.3233 9.10317V7.03011C36.3233 6.68358 36.1459 6.51544 35.8392 6.51544H23.5116V6.40471C23.5116 3.95845 24.1037 3.28589 26.3602 3.28589H35.9742C36.279 3.28589 36.4564 3.09724 36.4564 2.77326V0.515654C36.4564 0.162967 36.279 0.000976562 35.9742 0.000976562H26.3409ZM42.5894 0.000976562C40.0706 0.000976562 38.7341 1.39737 38.7341 3.79646V5.51684C38.7341 8.12713 40.0918 9.61785 42.545 9.61785H50.7551C51.5651 9.61785 51.8968 9.96849 51.8968 10.803V11.7586C51.8968 12.6198 51.5014 13.0196 50.7358 13.0196H39.2374C38.9057 13.0196 38.7534 13.2021 38.7534 13.5323V15.7899C38.7534 16.1426 38.9057 16.3046 39.2374 16.3046H51.3684C53.8852 16.3046 55.2429 14.9082 55.2429 12.5091V10.6205C55.2429 8.01025 53.8659 6.51954 51.4127 6.51954H43.2219C42.4119 6.51954 42.0609 6.1689 42.0609 5.33434V4.5408C42.0609 3.67959 42.4312 3.28589 43.2219 3.28589H54.1918C54.4985 3.28589 54.6759 3.09724 54.6759 2.77326V0.515654C54.6759 0.162967 54.5023 0.000976562 54.1918 0.000976562H42.5894ZM63.721 0.000976562C59.2775 0.000976562 57.5881 1.70085 57.5881 6.14839V10.153C57.5881 14.5985 59.2775 16.3005 63.721 16.3005H73.3583C73.663 16.3005 73.8424 16.1364 73.8424 15.7858V13.5282C73.8424 13.2021 73.6688 13.0135 73.3583 13.0135H63.7403C61.4839 13.0135 60.8918 12.3368 60.8918 9.89467V9.61785H73.2194C73.5261 9.61785 73.7035 9.45381 73.7035 9.10317V7.03011C73.7035 6.68358 73.5299 6.51544 73.2194 6.51544H60.8918V6.40471C60.8918 3.95845 61.4839 3.28589 63.7403 3.28589H73.3525C73.6591 3.28589 73.8366 3.09724 73.8366 2.77326V0.515654C73.8366 0.162967 73.663 0.000976562 73.3525 0.000976562H63.721ZM78.3244 0.000976562C76.9474 0.000976562 76.3746 0.58332 76.3746 2.42057V15.7858C76.3746 16.1364 76.527 16.3005 76.8587 16.3005H79.2039C79.5086 16.3005 79.6879 16.1364 79.6879 15.7858V3.63242C79.6879 3.47043 79.7323 3.40277 79.8596 3.40277H80.0582C80.1913 3.40277 80.255 3.44993 80.3437 3.56476L88.4264 14.9246C89.1072 15.9478 89.3695 16.3005 90.9433 16.3005H92.895C94.272 16.3005 94.8641 15.7161 94.8641 13.8788V0.515654C94.8641 0.162967 94.7118 0.000976562 94.38 0.000976562H92.0349C91.7089 0.000976562 91.5566 0.162967 91.5566 0.515654V12.667C91.5566 12.8289 91.4929 12.8987 91.3791 12.8987H91.1805C91.0474 12.8987 90.9645 12.8515 90.8951 12.7346L82.8374 1.37687C82.1353 0.351613 81.8692 0.000976562 80.2935 0.000976562H78.3244ZM96.9817 0.000976562C96.6307 0.000976562 96.5671 0.230633 96.7214 0.536159L103.969 14.5309C104.669 15.9478 105.346 16.3005 106.486 16.3005H107.78C108.698 16.3005 109.379 15.9478 110.1 14.5309L117.259 0.536159C117.411 0.230633 117.348 0.000976562 116.997 0.000976562H114.173C113.888 0.000976562 113.778 0.0686431 113.67 0.304452L107.34 12.8289C107.277 12.9458 107.188 12.993 107.078 12.993H106.97C106.862 12.993 106.773 12.9458 106.708 12.8289L100.33 0.304452C100.222 0.0747948 100.112 0.000976562 99.8264 0.000976562H96.9817ZM124.225 0.000976562C119.782 0.000976562 118.094 1.70085 118.094 6.14839V10.153C118.094 14.5985 119.782 16.3005 124.225 16.3005H130.969C135.413 16.3005 137.102 14.6252 137.102 10.153V6.14839C137.102 1.67419 135.413 0.000976562 130.969 0.000976562H124.225ZM121.421 6.40471C121.421 3.95845 122.057 3.28589 124.335 3.28589H130.836C133.112 3.28589 133.749 3.96461 133.749 6.40471V9.89467C133.749 12.3409 133.112 13.0135 130.836 13.0135H124.335C122.057 13.0135 121.421 12.3368 121.421 9.89467V6.40471ZM140.296 0.000976562C139.964 0.000976562 139.812 0.162967 139.812 0.515654V10.153C139.812 14.6252 141.496 16.3005 145.945 16.3005H154.921C155.226 16.3005 155.403 16.1364 155.403 15.7858V13.5077C155.403 13.155 155.231 12.993 154.921 12.993H146.057C143.802 12.993 143.145 12.2733 143.145 9.80035V0.515654C143.145 0.162967 142.992 0.000976562 142.661 0.000976562H140.296ZM152.649 0.000976562C152.298 0.000976562 152.234 0.230633 152.387 0.536159L159.63 14.5309C160.331 15.9478 161.013 16.3005 162.147 16.3005H163.441C164.359 16.3005 165.042 15.9478 165.761 14.5309L172.92 0.536159C173.075 0.230633 173.009 0.000976562 172.66 0.000976562H169.835C169.549 0.000976562 169.439 0.0686431 169.331 0.304452L163.007 12.8289C162.944 12.9458 162.853 12.993 162.745 12.993H162.637C162.529 12.993 162.438 12.9458 162.375 12.8289L155.997 0.304452C155.887 0.0747948 155.779 0.000976562 155.494 0.000976562H152.649ZM179.892 0.000976562C175.449 0.000976562 173.759 1.70085 173.759 6.14839V10.153C173.759 14.5985 175.449 16.3005 179.892 16.3005H189.524C189.83 16.3005 190.008 16.1364 190.008 15.7858V13.5282C190.008 13.2021 189.836 13.0135 189.524 13.0135H179.912C177.655 13.0135 177.063 12.3368 177.063 9.89467V9.61785H189.391C189.697 9.61785 189.875 9.45381 189.875 9.10317V7.03011C189.875 6.68358 189.703 6.51544 189.391 6.51544H177.063V6.40471C177.063 3.95845 177.655 3.28589 179.912 3.28589H189.524C189.83 3.28589 190.008 3.09724 190.008 2.77326V0.515654C190.008 0.162967 189.836 0.000976562 189.524 0.000976562H179.892Z" fill="white"/>
</mask>
<g mask="url(#mask1_176_125)">
<mask id="mask2_176_125" style="mask-type:luminance" maskUnits="userSpaceOnUse" x="-1" y="-1" width="192" height="18">
<path d="M190.494 -0.282715H-0.0830078V16.515H190.494V-0.282715Z" fill="white"/>
</mask>
<g mask="url(#mask2_176_125)">
<mask id="mask3_176_125" style="mask-type:luminance" maskUnits="userSpaceOnUse" x="0" y="0" width="190" height="17">
<path d="M0.034668 0.000732422H190V16.3617H0.034668V0.000732422Z" fill="white"/>
</mask>
<g mask="url(#mask3_176_125)">
<mask id="mask4_176_125" style="mask-type:luminance" maskUnits="userSpaceOnUse" x="0" y="0" width="191" height="17">
<path d="M0.717468 0.00146484C0.277747 0.00146484 0.0598145 0.231122 0.0598145 0.698638V15.6017C0.0598145 16.0692 0.277747 16.3009 0.717468 16.3009H10.941C15.6911 16.3009 17.641 14.273 17.641 9.73317V6.56719C17.6467 2.02737 15.6969 0.00146484 10.941 0.00146484H0.717468ZM3.38858 3.58575C3.38858 3.3766 3.4773 3.28228 3.67402 3.28228H10.8581C13.4405 3.28228 14.318 4.12093 14.318 6.86656V9.42969C14.318 12.1733 13.4443 13.014 10.8581 13.014H3.67402C3.4773 13.014 3.38858 12.9197 3.38858 12.7105V3.58575ZM26.3409 0.00146484C21.8974 0.00146484 20.2099 1.70133 20.2099 6.14888V10.1535C20.2099 14.599 21.8974 16.3009 26.3409 16.3009H35.9742C36.279 16.3009 36.4564 16.1369 36.4564 15.7863V13.5287C36.4564 13.2026 36.279 13.014 35.9742 13.014H26.3602C24.1037 13.014 23.5116 12.3373 23.5116 9.89516V9.61834H35.8392C36.1459 9.61834 36.3233 9.4543 36.3233 9.10366V7.0306C36.3233 6.68407 36.1459 6.51592 35.8392 6.51592H23.5116V6.4052C23.5116 3.95894 24.1037 3.28638 26.3602 3.28638H35.9742C36.279 3.28638 36.4564 3.09773 36.4564 2.77375V0.516142C36.4564 0.163455 36.279 0.00146484 35.9742 0.00146484H26.3409ZM42.5894 0.00146484C40.0706 0.00146484 38.7341 1.39786 38.7341 3.79695V5.51733C38.7341 8.12762 40.0918 9.61834 42.545 9.61834H50.7551C51.5651 9.61834 51.8968 9.96898 51.8968 10.8035V11.7591C51.8968 12.6203 51.5014 13.0201 50.7358 13.0201H39.2374C38.9057 13.0201 38.7534 13.2026 38.7534 13.5328V15.7904C38.7534 16.1431 38.9057 16.305 39.2374 16.305H51.3684C53.8852 16.305 55.2429 14.9086 55.2429 12.5096V10.621C55.2429 8.01074 53.8659 6.52002 51.4127 6.52002H43.2219C42.4119 6.52002 42.0609 6.16939 42.0609 5.33483V4.54129C42.0609 3.68007 42.4312 3.28638 43.2219 3.28638H54.1918C54.4985 3.28638 54.6759 3.09773 54.6759 2.77375V0.516142C54.6759 0.163455 54.5023 0.00146484 54.1918 0.00146484H42.5894ZM63.721 0.00146484C59.2775 0.00146484 57.5881 1.70133 57.5881 6.14888V10.1535C57.5881 14.599 59.2775 16.3009 63.721 16.3009H73.3583C73.663 16.3009 73.8424 16.1369 73.8424 15.7863V13.5287C73.8424 13.2026 73.6688 13.014 73.3583 13.014H63.7403C61.4839 13.014 60.8918 12.3373 60.8918 9.89516V9.61834H73.2194C73.5261 9.61834 73.7035 9.4543 73.7035 9.10366V7.0306C73.7035 6.68407 73.5299 6.51592 73.2194 6.51592H60.8918V6.4052C60.8918 3.95894 61.4839 3.28638 63.7403 3.28638H73.3525C73.6591 3.28638 73.8366 3.09773 73.8366 2.77375V0.516142C73.8366 0.163455 73.663 0.00146484 73.3525 0.00146484H63.721ZM78.3244 0.00146484C76.9474 0.00146484 76.3746 0.583809 76.3746 2.42106V15.7863C76.3746 16.1369 76.527 16.3009 76.8587 16.3009H79.2039C79.5086 16.3009 79.6879 16.1369 79.6879 15.7863V3.63291C79.6879 3.47092 79.7323 3.40325 79.8596 3.40325H80.0582C80.1913 3.40325 80.255 3.45042 80.3437 3.56525L88.4264 14.9251C89.1072 15.9483 89.3695 16.3009 90.9433 16.3009H92.895C94.272 16.3009 94.8641 15.7165 94.8641 13.8793V0.516142C94.8641 0.163455 94.7118 0.00146484 94.38 0.00146484H92.0349C91.7089 0.00146484 91.5566 0.163455 91.5566 0.516142V12.6674C91.5566 12.8294 91.4929 12.8992 91.3791 12.8992H91.1805C91.0474 12.8992 90.9645 12.852 90.8951 12.7351L82.8374 1.37735C82.1353 0.352102 81.8692 0.00146484 80.2935 0.00146484H78.3244ZM96.9817 0.00146484C96.6307 0.00146484 96.5671 0.231122 96.7214 0.536647L103.969 14.5314C104.669 15.9483 105.346 16.3009 106.486 16.3009H107.78C108.698 16.3009 109.379 15.9483 110.1 14.5314L117.259 0.536647C117.411 0.231122 117.348 0.00146484 116.997 0.00146484H114.173C113.888 0.00146484 113.778 0.0691319 113.67 0.30494L107.34 12.8294C107.277 12.9463 107.188 12.9935 107.078 12.9935H106.97C106.862 12.9935 106.773 12.9463 106.708 12.8294L100.33 0.30494C100.222 0.0752836 100.112 0.00146484 99.8264 0.00146484H96.9817ZM124.225 0.00146484C119.782 0.00146484 118.094 1.70133 118.094 6.14888V10.1535C118.094 14.599 119.782 16.3009 124.225 16.3009H130.969C135.413 16.3009 137.102 14.6257 137.102 10.1535V6.14888C137.102 1.67468 135.413 0.00146484 130.969 0.00146484H124.225ZM121.421 6.4052C121.421 3.95894 122.057 3.28638 124.335 3.28638H130.836C133.112 3.28638 133.749 3.96509 133.749 6.4052V9.89516C133.749 12.3414 133.112 13.014 130.836 13.014H124.335C122.057 13.014 121.421 12.3373 121.421 9.89516V6.4052ZM140.296 0.00146484C139.964 0.00146484 139.812 0.163455 139.812 0.516142V10.1535C139.812 14.6257 141.496 16.3009 145.945 16.3009H154.921C155.226 16.3009 155.403 16.1369 155.403 15.7863V13.5082C155.403 13.1555 155.231 12.9935 154.921 12.9935H146.057C143.802 12.9935 143.145 12.2737 143.145 9.80084V0.516142C143.145 0.163455 142.992 0.00146484 142.661 0.00146484H140.296ZM152.649 0.00146484C152.298 0.00146484 152.234 0.231122 152.387 0.536647L159.63 14.5314C160.331 15.9483 161.013 16.3009 162.147 16.3009H163.441C164.359 16.3009 165.042 15.9483 165.761 14.5314L172.92 0.536647C173.075 0.231122 173.009 0.00146484 172.66 0.00146484H169.835C169.549 0.00146484 169.439 0.0691319 169.331 0.30494L163.007 12.8294C162.944 12.9463 162.853 12.9935 162.745 12.9935H162.637C162.529 12.9935 162.438 12.9463 162.375 12.8294L155.997 0.30494C155.887 0.0752836 155.779 0.00146484 155.494 0.00146484H152.649ZM179.892 0.00146484C175.449 0.00146484 173.759 1.70133 173.759 6.14888V10.1535C173.759 14.599 175.449 16.3009 179.892 16.3009H189.524C189.83 16.3009 190.008 16.1369 190.008 15.7863V13.5287C190.008 13.2026 189.836 13.014 189.524 13.014H179.912C177.655 13.014 177.063 12.3373 177.063 9.89516V9.61834H189.391C189.697 9.61834 189.875 9.4543 189.875 9.10366V7.0306C189.875 6.68407 189.703 6.51592 189.391 6.51592H177.063V6.4052C177.063 3.95894 177.655 3.28638 179.912 3.28638H189.524C189.83 3.28638 190.008 3.09773 190.008 2.77375V0.516142C190.008 0.163455 189.836 0.00146484 189.524 0.00146484H179.892Z" fill="white"/>
</mask>
<g mask="url(#mask4_176_125)">
<path d="M0.0598145 0.00146484H189.996V16.2989H0.0598145V0.00146484Z" fill="#666666"/>
</g>
</g>
</g>
</g>
</g>
</svg>
